<?xml version="1.0" standalone="no"?>
<!DOCTYPE svg PUBLIC "-//W3C//DTD SVG 20010904//EN"
 "http://www.w3.org/TR/2001/REC-SVG-20010904/DTD/svg10.dtd">
<svg version="1.0" xmlns="http://www.w3.org/2000/svg"
 width="1004.000000pt" height="1023.000000pt" viewBox="0 0 1004.000000 1023.000000"
 preserveAspectRatio="xMidYMid meet">
<metadata>
Created by potrace 1.16, written by Peter Selinger 2001-2019
</metadata>
<g transform="translate(0.000000,1023.000000) scale(0.100000,-0.100000)"
fill="#000000" stroke="none">
<path d="M4765 10223 c-702 -59 -1306 -221 -1890 -508 -397 -195 -723 -407
-1070 -697 -234 -195 -555 -534 -761 -804 -199 -260 -513 -779 -487 -804 4 -5
388 -303 853 -664 l844 -655 32 87 c196 549 579 1063 1059 1424 447 336 982
540 1545 589 183 16 506 6 680 -20 543 -83 1047 -321 1448 -683 30 -26 59 -48
65 -48 7 0 340 328 741 729 l729 729 -56 52 c-344 315 -733 578 -1162 786
-243 118 -382 174 -625 255 -361 119 -747 196 -1145 229 -109 9 -704 11 -800
3z"/>
<path d="M5120 5048 l0 -988 1379 0 1379 0 -19 -87 c-11 -49 -26 -110 -35
-138 -9 -27 -18 -57 -19 -65 -15 -66 -108 -286 -164 -389 -23 -41 -41 -75 -41
-77 0 -2 -13 -23 -30 -47 -16 -25 -30 -49 -30 -55 0 -6 -3 -12 -7 -14 -10 -4
-63 -75 -63 -83 0 -3 -13 -20 -30 -38 -16 -18 -30 -35 -30 -39 0 -26 -287
-320 -360 -370 -14 -9 -37 -27 -51 -40 -15 -13 -49 -39 -78 -58 -28 -19 -51
-38 -51 -41 0 -3 34 -33 76 -65 42 -33 93 -72 114 -89 21 -16 129 -101 241
-187 112 -87 314 -243 449 -348 135 -105 277 -215 315 -244 187 -145 422 -328
436 -340 15 -12 33 3 155 128 131 133 192 199 239 261 11 14 27 33 36 43 9 9
34 42 56 72 22 30 50 64 62 74 11 11 21 25 21 33 0 7 5 13 10 13 6 0 10 7 10
15 0 8 4 15 9 15 8 0 84 108 106 151 5 10 13 19 17 19 5 0 8 5 8 11 0 6 11 25
25 43 14 18 25 38 25 44 0 6 4 12 8 14 10 4 102 162 102 176 0 6 7 17 15 25
13 14 167 326 195 397 8 19 20 46 27 59 6 14 10 28 7 33 -3 4 -1 8 4 8 5 0 15
19 22 43 8 23 17 47 21 52 4 6 10 22 13 37 2 14 9 34 15 44 11 20 97 278 105
317 3 12 19 73 36 135 30 114 70 286 74 326 1 12 5 26 9 32 3 6 8 32 11 60 3
27 12 87 21 132 8 46 17 107 19 135 3 29 8 70 11 92 47 345 52 951 11 1320 -3
22 -7 67 -10 100 -5 54 -26 201 -42 295 l-6 35 -2414 0 -2414 0 0 -987z"/>
</g>
</svg>
